<svg xmlns="http://www.w3.org/2000/svg" viewBox="0 0 512 512" role="img" aria-label="Mem">
  <rect width="512" height="512" fill="#c5a46e"/>
  <path fill="#0b1118" transform="matrix(0.25935871,0,0,-0.25935871,108.5030,326.8552)" d="M238 939Q336 964 343 873Q233 699 192 565Q523 641 523 677Q591 924 661 924Q726 950 766 888Q703 740 670 615L937 656Q1054 888 1090 888Q1183 925 1185 824Q1185 730 902 279Q605 -191 58 -398Q-141 -369 35 -253Q274 -169 530 80Q762 309 838 503L565 444Q464 411 464 487L136 400Q-39 354 -8 466Q166 902 238 939Z"/>
</svg>
